# xmcd CD database file
#
# Track frame offsets:
#	150
#	28932
#	54149
#	76214
#	124093
#	144273
#	157343
#	177483
#	202862
#	235837
#
# Disc length: 3419 seconds
#
# Revision: 0
# Processed by: cddbd v1.5.2PL0 Copyright (c) Steve Scherf et al.
# Submitted via: CDex 1.70beta2
#
DISCID=7f0d590a
DTITLE=Jimmy Lawrence and Chicago Carl Snyder - Why Don't You Do Right?
DYEAR=1999
DGENRE=Jazz
TTITLE0=Why Don't You Do Right?
TTITLE1=That Aint Right
TTITLE2=For You My Love
TTITLE3=Jelly, Jelly
TTITLE4=Mama, Talk To Your Daughter
TTITLE5=Blue Streak
TTITLE6=A Woman, A Lover, A Friend
TTITLE7=Jimmy's Shuffle
TTITLE8=Moanin' The Blues
TTITLE9=Walkin' With The Blues
EXTD=YEAR: 1999
EXTT0=
EXTT1=
EXTT2=
EXTT3=
EXTT4=
EXTT5=
EXTT6=
EXTT7=
EXTT8=
EXTT9=
PLAYORDER=
